<?xml version="1.0" encoding="utf-8"?>
<!-- Generator: Adobe Illustrator 24.2.3, SVG Export Plug-In . SVG Version: 6.00 Build 0)  -->
<svg version="1.1" id="Layer_1" xmlns="http://www.w3.org/2000/svg" xmlns:xlink="http://www.w3.org/1999/xlink" x="0px" y="0px"
	 viewBox="0 0 170.04 168.39" style="enable-background:new 0 0 170.04 168.39;" xml:space="preserve">
<style type="text/css">
	.st0{fill:#EEEEEE;}
	.st1{clip-path:url(#SVGID_2_);fill:#FFFFFF;}
	.st2{fill:#939392;}
	.st3{fill:#ACA14A;}
	.st4{fill:none;}
</style>
<g>
	<g>
		<path class="st0" d="M7.69,83c-0.56,43.26,34.05,78.79,77.32,79.36c43.26,0.56,78.79-34.06,79.36-77.32
			c0.56-43.27-34.05-78.8-77.32-79.36C43.79,5.11,8.25,39.73,7.69,83z"/>
		<g>
			<defs>
				<path id="SVGID_1_" d="M7.69,83c-0.56,43.26,34.05,78.79,77.32,79.36c43.26,0.56,78.79-34.06,79.36-77.32
					c0.56-43.27-34.05-78.8-77.32-79.36C43.79,5.11,8.25,39.73,7.69,83z"/>
			</defs>
			<clipPath id="SVGID_2_">
				<use xlink:href="#SVGID_1_"  style="overflow:visible;"/>
			</clipPath>
			<path class="st1" d="M23.55,78.21l3.25,0.04c11.11,0.14,19.71,3.07,25.8,8.76c6.1,5.7,9.08,13.58,8.95,23.65
				c-0.1,7.46-1.99,14.91-5.68,22.33c-3.69,7.42-8.9,14.27-15.62,20.55c-6.86,6.35-13.77,11.08-20.72,14.22
				c-6.96,3.13,4.88-5.79,14-16.79c9.11-11,13.76-23.58,13.95-37.74c0.12-9.58-1.94-17.08-6.2-22.51
				c-4.25-5.42-10.19-8.19-17.8-8.29c-5.21-0.07-11.36,1.67-18.46,5.2c-1.93,0.93-3.1,1.4-3.51,1.39c-0.48-0.01-0.86-0.15-1.12-0.42
				c-0.27-0.28-0.4-0.62-0.4-1.04c0.03-2.05,3.72-4.68,11.09-7.87c3.51-1.46,6.26-2.7,8.26-3.7c12.72-6.08,21.51-12.01,26.36-17.81
				c4.85-5.8,7.33-12.78,7.44-20.94c0.07-5.62-1.14-10.02-3.64-13.21c-2.5-3.18-5.98-4.81-10.45-4.87
				c-2.68-0.04-5.49,0.65-8.42,2.06c-2.94,1.41-6.22,3.69-9.83,6.82c-1.67,1.43-3.38,3.22-5.12,5.37c-1.74,2.15-3.1,3.22-4.06,3.21
				c-0.48-0.01-0.8-0.08-0.97-0.22c-0.17-0.13-0.26-0.34-0.25-0.62c0.05-3.92,3.93-8.64,11.64-14.18c7.72-5.53,15.4-8.25,23.08-8.15
				c6.92,0.09,12.42,2.26,16.51,6.48c4.09,4.24,6.09,9.88,6,16.93c-0.09,7.26-3.76,14.27-11,21.02
				C49.39,64.64,38.36,71.41,23.55,78.21"/>
		</g>
		<g>
			<path class="st2" d="M57.97,136.59c-0.1-0.28-0.14-0.32-0.52-0.32h-1.9c-0.33,0-0.4,0.04-0.49,0.3l-0.44,1.33
				c-0.19,0.56-0.28,0.91-0.28,1.05c0,0.15,0.07,0.23,0.37,0.25l0.42,0.04c0.09,0.06,0.09,0.27-0.03,0.31
				c-0.33-0.02-0.72-0.02-1.31-0.03c-0.42,0-0.87,0.02-1.21,0.03l-0.03-0.31l0.42-0.04c0.31-0.02,0.58-0.16,0.76-0.62
				c0.23-0.59,0.58-1.4,1.11-2.82l1.29-3.42c0.18-0.45,0.26-0.69,0.22-0.89c0.3-0.09,0.51-0.33,0.65-0.49l0.2,0.12
				c0.17,0.56,0.36,1.14,0.55,1.7l1.73,5.08c0.37,1.09,0.53,1.28,1.07,1.34l0.34,0.04v0.31c-0.52-0.02-0.96-0.03-1.53-0.03
				c-0.62,0-1.09,0.02-1.46,0.03c-0.1-0.04-0.11-0.25-0.03-0.31l0.37-0.04c0.27-0.02,0.45-0.1,0.45-0.23c0-0.14-0.06-0.36-0.16-0.67
				L57.97,136.59z M55.46,135.46c-0.1,0.3-0.09,0.3,0.27,0.3h1.55c0.37,0,0.39-0.05,0.28-0.4l-0.68-2.06
				c-0.1-0.3-0.21-0.64-0.29-0.79h-0.02c-0.04,0.06-0.17,0.37-0.3,0.74L55.46,135.46z"/>
			<path class="st3" d="M68.01,133.75l0.62,0.01c2.14,0.03,3.81,0.58,4.99,1.69c1.17,1.11,1.76,2.63,1.73,4.57
				c-0.02,1.44-0.39,2.88-1.1,4.32c-0.71,1.43-1.71,2.75-3.02,3.96c-1.32,1.23-2.65,2.15-4,2.75c-1.35,0.61,0.95-1.11,2.7-3.23
				c1.77-2.13,2.67-4.56,2.7-7.3c0.03-1.85-0.38-3.3-1.2-4.35c-0.83-1.05-1.97-1.58-3.44-1.6c-1.01-0.01-2.2,0.32-3.57,1
				c-0.37,0.18-0.6,0.27-0.68,0.27c-0.09,0-0.17-0.02-0.22-0.08l-0.08-0.2c0.01-0.4,0.72-0.9,2.15-1.52
				c0.67-0.29,1.21-0.52,1.59-0.72c2.46-1.18,4.16-2.32,5.1-3.44c0.94-1.12,1.42-2.47,1.44-4.04c0.02-1.09-0.22-1.94-0.71-2.55
				c-0.48-0.62-1.15-0.93-2.02-0.94c-0.52-0.01-1.06,0.13-1.63,0.4c-0.57,0.28-1.21,0.71-1.9,1.32c-0.32,0.27-0.65,0.62-0.99,1.03
				c-0.33,0.42-0.6,0.62-0.78,0.62c-0.1,0-0.16,0-0.19-0.03l-0.05-0.13c0.01-0.75,0.76-1.67,2.25-2.73c1.49-1.07,2.98-1.6,4.46-1.58
				c1.33,0.02,2.4,0.44,3.19,1.25c0.79,0.82,1.18,1.91,1.16,3.27c-0.02,1.4-0.73,2.76-2.13,4.07
				C73,131.13,70.86,132.43,68.01,133.75"/>
			<path class="st2" d="M80.64,131.99c0.94-0.71,2.12-1.04,3.43-1.03c0.68,0.01,1.64,0.16,2.23,0.33c0.15,0.05,0.24,0.07,0.36,0.05
				c0,0.3,0.05,1.1,0.15,1.86l-0.34,0.02c-0.18-0.87-0.74-1.85-2.57-1.87c-1.94-0.03-3.6,1.18-3.63,3.79
				c-0.04,2.66,1.63,4.15,3.7,4.18c1.63,0.02,2.37-1.03,2.67-1.78l0.32,0.06c-0.09,0.66-0.43,1.49-0.63,1.72
				c-0.15,0.03-0.3,0.07-0.44,0.12c-0.28,0.09-1.19,0.27-2,0.26c-1.14-0.01-2.22-0.26-3.13-0.89c-1.01-0.7-1.78-1.87-1.76-3.5
				C79.02,133.92,79.67,132.72,80.64,131.99"/>
			<path class="st2" d="M91.9,133.27c0.02-1.31,0-1.5-0.75-1.59l-0.21-0.04l0.03-0.31c0.54,0.03,0.97,0.05,1.49,0.06l2.38,0.03
				c0.81,0.01,1.56,0.02,1.71-0.02c0.07,0.22,0.14,1.13,0.18,1.68l-0.31,0.02c-0.18-0.59-0.3-1.04-0.95-1.21
				c-0.27-0.07-0.67-0.09-1.23-0.09l-0.9-0.01c-0.38,0-0.38,0.03-0.39,0.5l-0.03,2.53c0,0.35,0.03,0.35,0.42,0.36l0.73,0.01
				c0.54,0.01,0.93-0.01,1.08-0.05c0.15-0.05,0.24-0.13,0.31-0.44l0.11-0.52l0.33,0.01c0,0.3-0.06,0.79-0.07,1.28
				c-0.01,0.46,0.04,0.94,0.04,1.21l-0.33,0.01l-0.11-0.49c-0.05-0.23-0.13-0.43-0.38-0.49c-0.18-0.05-0.48-0.07-0.98-0.07
				l-0.73-0.01c-0.38,0-0.42,0-0.43,0.33l-0.02,1.78c-0.01,0.68,0.02,1.11,0.22,1.32c0.15,0.16,0.42,0.3,1.53,0.32
				c0.97,0.01,1.34-0.04,1.62-0.17c0.23-0.12,0.58-0.56,0.92-1.22c0.09-0.06,0.27-0.02,0.32,0.09c-0.1,0.45-0.42,1.41-0.59,1.75
				c-1.14-0.03-2.26-0.07-3.39-0.08l-1.14-0.01c-0.55-0.01-0.98,0.01-1.72,0.02l-0.03-0.32l0.42-0.02c0.72-0.07,0.78-0.25,0.8-1.58
				L91.9,133.27z"/>
			<path class="st2" d="M102.29,133.43c0.02-1.2-0.02-1.42-0.54-1.49l-0.41-0.06c-0.09-0.07-0.08-0.26,0.02-0.31
				c0.71-0.06,1.59-0.08,2.82-0.07c0.79,0.01,1.53,0.08,2.11,0.4c0.6,0.33,1.04,0.9,1.03,1.79c-0.02,1.2-0.97,1.84-1.61,2.09
				c-0.06,0.07,0,0.2,0.06,0.3c0.99,1.65,1.65,2.67,2.5,3.41c0.21,0.19,0.53,0.33,0.86,0.35l0.02,0.18
				c-0.12,0.04-0.32,0.06-0.56,0.05c-1.07-0.01-1.71-0.33-2.6-1.62c-0.32-0.48-0.83-1.36-1.21-1.92c-0.19-0.29-0.39-0.42-0.89-0.42
				c-0.57-0.01-0.6,0.01-0.6,0.27l-0.02,1.6c-0.02,1.33,0.01,1.47,0.74,1.59l0.27,0.03l-0.03,0.32c-0.57-0.03-1-0.05-1.51-0.06
				c-0.53-0.01-0.99,0-1.58,0.02l-0.02-0.32l0.32-0.03c0.73-0.08,0.76-0.25,0.78-1.57L102.29,133.43z M103.3,135.25
				c0,0.22,0,0.36,0.04,0.41c0.04,0.04,0.22,0.07,0.88,0.08c0.46,0.01,0.93-0.04,1.31-0.31c0.34-0.25,0.64-0.7,0.65-1.56
				c0.01-0.99-0.59-1.95-2-1.97c-0.78-0.01-0.83,0.03-0.83,0.4L103.3,135.25z"/>
			<path class="st2" d="M115.85,138.15c-0.02,1.33,0.01,1.51,0.74,1.59l0.41,0.04l-0.03,0.32c-0.72-0.03-1.16-0.05-1.66-0.06
				c-0.51-0.01-0.95,0.01-1.76,0.02c-0.07-0.04-0.1-0.25,0-0.32l0.46-0.03c0.72-0.06,0.79-0.25,0.8-1.57l0.07-5.66
				c0-0.4,0-0.41-0.38-0.41l-0.69-0.01c-0.54-0.01-1.24,0.02-1.56,0.3c-0.31,0.28-0.43,0.55-0.58,0.87c-0.11,0.07-0.28,0-0.33-0.09
				c0.21-0.57,0.41-1.38,0.5-1.88l0.24,0c0.07,0.4,0.49,0.39,1.07,0.4l5.12,0.07c0.68,0.01,0.8-0.02,0.99-0.34l0.22,0.04
				c-0.14,0.51-0.25,1.55-0.22,1.93l-0.33,0.01c-0.04-0.33-0.12-0.79-0.3-0.93c-0.29-0.21-0.78-0.33-1.47-0.34l-0.9-0.01
				c-0.38,0-0.37,0.01-0.37,0.43L115.85,138.15z"/>
		</g>
		<g>
			<path class="st2" d="M48.08,104.21c0.83-0.62,1.88-0.93,3.04-0.91c0.61,0.01,1.46,0.14,1.98,0.29c0.13,0.03,0.21,0.06,0.31,0.05
				c0.01,0.26,0.06,0.96,0.13,1.65l-0.3,0.02c-0.16-0.76-0.65-1.64-2.28-1.66c-1.72-0.02-3.18,1.04-3.21,3.36
				c-0.03,2.36,1.44,3.68,3.28,3.7c1.45,0.02,2.1-0.92,2.36-1.57l0.29,0.05c-0.09,0.58-0.39,1.32-0.56,1.53
				c-0.14,0.02-0.27,0.06-0.39,0.11c-0.25,0.09-1.06,0.24-1.78,0.24c-1.01-0.01-1.97-0.23-2.78-0.79c-0.89-0.62-1.57-1.66-1.55-3.1
				C46.65,105.92,47.22,104.86,48.08,104.21"/>
			<path class="st2" d="M58.21,105.25c0.01-1.16,0-1.33-0.67-1.42l-0.18-0.03l0.03-0.28c0.48,0.03,0.87,0.05,1.32,0.05l2.11,0.03
				c0.71,0.01,1.38,0.02,1.51-0.02c0.07,0.19,0.12,1,0.16,1.5l-0.28,0.01c-0.16-0.53-0.26-0.92-0.84-1.08
				c-0.23-0.06-0.59-0.08-1.09-0.08l-0.8-0.01c-0.34,0-0.34,0.02-0.34,0.44l-0.03,2.24c0,0.32,0.03,0.32,0.37,0.32l0.65,0.01
				c0.47,0.01,0.82-0.01,0.95-0.05c0.14-0.05,0.22-0.11,0.28-0.39l0.1-0.45l0.29,0.01c0,0.27-0.05,0.7-0.06,1.13
				c-0.01,0.4,0.04,0.83,0.03,1.08l-0.29,0.01l-0.1-0.44c-0.04-0.2-0.12-0.37-0.34-0.43c-0.15-0.04-0.43-0.06-0.86-0.07l-0.65-0.01
				c-0.34,0-0.37,0.01-0.38,0.3l-0.02,1.58c-0.01,0.59,0.02,0.98,0.2,1.17c0.13,0.13,0.36,0.26,1.35,0.27
				c0.86,0.01,1.19-0.03,1.44-0.15c0.21-0.11,0.52-0.5,0.81-1.08l0.28,0.08c-0.08,0.39-0.38,1.25-0.53,1.55
				c-1.01-0.04-2.01-0.06-3-0.07l-1.01-0.01c-0.48-0.01-0.86,0-1.52,0.01l-0.02-0.28l0.38-0.03c0.64-0.05,0.7-0.22,0.71-1.39
				L58.21,105.25z"/>
			<path class="st2" d="M67.55,105.39c0.01-1.06-0.02-1.25-0.47-1.32l-0.36-0.05l0.02-0.28c0.63-0.05,1.4-0.07,2.5-0.06
				c0.7,0.01,1.36,0.07,1.87,0.36c0.54,0.29,0.92,0.8,0.91,1.58c-0.01,1.06-0.86,1.64-1.42,1.85l0.05,0.27
				c0.88,1.46,1.46,2.36,2.21,3.01c0.19,0.17,0.47,0.29,0.77,0.32l0.01,0.16c-0.1,0.03-0.28,0.05-0.49,0.05
				c-0.96-0.01-1.52-0.3-2.3-1.44c-0.28-0.42-0.74-1.2-1.08-1.71c-0.16-0.25-0.34-0.36-0.79-0.37c-0.5-0.01-0.53,0-0.53,0.24
				l-0.02,1.41c-0.02,1.18,0.01,1.31,0.65,1.41l0.23,0.03l-0.03,0.28c-0.5-0.03-0.88-0.05-1.34-0.05c-0.47-0.01-0.87,0-1.4,0.02
				l-0.02-0.29l0.28-0.03c0.65-0.07,0.67-0.22,0.69-1.4L67.55,105.39z M68.46,107c0,0.21,0,0.33,0.03,0.37
				c0.03,0.03,0.2,0.05,0.78,0.06c0.4,0.01,0.83-0.03,1.15-0.27c0.31-0.23,0.57-0.62,0.58-1.39c0.01-0.88-0.53-1.73-1.77-1.75
				c-0.7-0.01-0.73,0.03-0.73,0.35L68.46,107z"/>
			<path class="st2" d="M79.72,109.57c-0.02,1.18,0,1.33,0.66,1.41l0.36,0.04l-0.03,0.28c-0.64-0.03-1.02-0.05-1.47-0.06
				c-0.45-0.01-0.84,0-1.56,0.02l0-0.28l0.4-0.03c0.64-0.05,0.7-0.22,0.72-1.39l0.06-5.01c0.01-0.35,0.01-0.36-0.33-0.36l-0.62-0.01
				c-0.48-0.01-1.1,0.01-1.38,0.26c-0.27,0.24-0.38,0.49-0.51,0.77l-0.29-0.08c0.19-0.51,0.37-1.22,0.45-1.66l0.21,0
				c0.06,0.36,0.43,0.35,0.95,0.36l4.54,0.06c0.61,0.01,0.71-0.01,0.88-0.3l0.2,0.04c-0.13,0.46-0.22,1.36-0.19,1.7l-0.29,0.02
				c-0.03-0.28-0.11-0.7-0.27-0.82c-0.26-0.19-0.68-0.29-1.29-0.3l-0.8-0.01c-0.33,0-0.32,0.01-0.33,0.38L79.72,109.57z"/>
			<path class="st2" d="M87.29,105.65c0.02-1.19-0.01-1.38-0.66-1.44l-0.28-0.03l0.03-0.28c0.56,0.04,0.94,0.05,1.41,0.05
				c0.45,0.01,0.83,0,1.39-0.01l0.02,0.28l-0.28,0.02c-0.66,0.05-0.69,0.24-0.7,1.42l-0.05,4c-0.02,1.19,0.01,1.34,0.66,1.43
				l0.28,0.03l-0.02,0.28c-0.57-0.03-0.95-0.05-1.39-0.05c-0.47-0.01-0.85,0-1.41,0.02l-0.02-0.29l0.28-0.03
				c0.66-0.07,0.69-0.23,0.7-1.41L87.29,105.65z"/>
			<path class="st2" d="M94.78,107.21c0,0.3,0.03,0.3,0.37,0.31l0.76,0.01c0.46,0.01,0.82-0.01,0.95-0.05
				c0.12-0.04,0.21-0.1,0.29-0.39l0.11-0.45l0.29,0c0,0.27-0.05,0.71-0.06,1.13c0,0.41,0.03,0.83,0.03,1.09l-0.29,0l-0.11-0.44
				c-0.04-0.2-0.14-0.36-0.35-0.43c-0.16-0.05-0.44-0.06-0.86-0.07l-0.76-0.01c-0.34,0-0.37,0.01-0.38,0.3l-0.02,1.56
				c-0.02,1.18,0,1.34,0.66,1.41l0.38,0.04l-0.03,0.28c-0.66-0.03-1.04-0.05-1.49-0.05c-0.49-0.01-0.88,0-1.4,0.02l-0.02-0.28
				l0.28-0.03c0.65-0.07,0.68-0.22,0.7-1.39l0.05-4.04c0.02-1.17-0.01-1.33-0.66-1.42l-0.18-0.03l0.03-0.28
				c0.47,0.03,0.85,0.04,1.3,0.05l2.06,0.03c0.71,0.01,1.37,0.02,1.51-0.01c-0.01,0.52,0,1.06,0.02,1.48l-0.27,0.03
				c-0.08-0.5-0.21-0.91-0.77-1.08c-0.25-0.06-0.62-0.08-1.09-0.08l-0.68-0.01c-0.33,0-0.33,0.02-0.34,0.44L94.78,107.21z"/>
			<path class="st2" d="M102.71,105.85c0.02-1.19,0-1.38-0.66-1.44l-0.28-0.03l0.03-0.28c0.56,0.04,0.94,0.05,1.41,0.05
				c0.45,0.01,0.83,0,1.39-0.01l0.02,0.28l-0.28,0.02c-0.66,0.05-0.69,0.24-0.7,1.42l-0.05,4c-0.02,1.19,0.01,1.34,0.67,1.43
				l0.28,0.03l-0.03,0.28c-0.56-0.03-0.94-0.05-1.39-0.05c-0.47-0.01-0.85,0-1.41,0.02l-0.02-0.29l0.28-0.03
				c0.66-0.07,0.68-0.23,0.7-1.42L102.71,105.85z"/>
			<path class="st2" d="M109.3,105.92c0.02-1.16-0.01-1.33-0.67-1.42l-0.18-0.03l0.03-0.28c0.48,0.03,0.86,0.05,1.32,0.05l2.11,0.03
				c0.72,0.01,1.38,0.02,1.51-0.02c0.06,0.19,0.12,1,0.16,1.5l-0.28,0.01c-0.16-0.53-0.26-0.92-0.84-1.08
				c-0.23-0.06-0.59-0.08-1.08-0.08l-0.81-0.01c-0.33,0-0.33,0.02-0.34,0.44l-0.03,2.24c0,0.32,0.03,0.32,0.37,0.32l0.65,0.01
				c0.47,0.01,0.82-0.01,0.95-0.05c0.14-0.05,0.22-0.11,0.28-0.39l0.09-0.45l0.3,0.01c0,0.27-0.06,0.7-0.06,1.13
				c0,0.4,0.04,0.83,0.03,1.08l-0.29,0.01l-0.09-0.44c-0.04-0.2-0.12-0.37-0.34-0.43c-0.16-0.04-0.43-0.06-0.87-0.07l-0.65-0.01
				c-0.34,0-0.37,0.01-0.38,0.3l-0.02,1.58c-0.01,0.59,0.02,0.98,0.19,1.17c0.14,0.13,0.37,0.26,1.35,0.27
				c0.87,0.01,1.19-0.03,1.44-0.15c0.2-0.11,0.51-0.5,0.81-1.08l0.28,0.08c-0.08,0.39-0.37,1.25-0.52,1.55
				c-1.01-0.04-2.01-0.06-3.01-0.07l-1-0.01c-0.48-0.01-0.86,0-1.53,0.01l-0.02-0.28l0.37-0.03c0.64-0.05,0.7-0.22,0.72-1.39
				L109.3,105.92z"/>
			<path class="st2" d="M118.66,105.82c0.01-0.79-0.05-1.02-0.51-1.1l-0.25-0.04c-0.09-0.06-0.1-0.24,0.01-0.28
				c0.95-0.05,1.86-0.07,2.81-0.06c0.94,0.01,1.74,0.09,2.46,0.37c1.51,0.57,2.25,1.86,2.23,3.34c-0.02,1.43-0.72,2.64-2.01,3.31
				c-0.74,0.38-1.65,0.52-2.52,0.51c-0.72-0.01-1.43-0.11-1.83-0.11c-0.47-0.01-0.87,0-1.4,0.02l-0.02-0.28l0.26-0.03
				c0.65-0.08,0.68-0.22,0.7-1.4L118.66,105.82z M119.52,109.83c-0.01,0.59,0.02,0.95,0.21,1.23c0.24,0.35,0.67,0.46,1.38,0.47
				c2.17,0.03,3.17-1.38,3.19-3.46c0.02-1.23-0.55-3.33-3.49-3.37c-0.66-0.01-1.01,0.08-1.11,0.14c-0.09,0.07-0.12,0.35-0.12,0.85
				L119.52,109.83z"/>
		</g>
		<g>
			<path class="st2" d="M63.38,33.07c0.05-3.87,0.06-4.59,0.02-5.41c-0.04-0.87-0.29-1.3-0.85-1.44c-0.28-0.08-0.61-0.11-0.92-0.11
				c-0.25,0-0.41-0.06-0.4-0.26c0-0.15,0.21-0.2,0.61-0.2c0.97,0.01,2.57,0.11,3.31,0.12c0.64,0.01,2.14-0.05,3.11-0.04
				c0.33,0,0.54,0.06,0.53,0.21c0,0.2-0.16,0.25-0.41,0.25c-0.26,0-0.46,0.02-0.77,0.07c-0.69,0.12-0.9,0.55-0.96,1.44
				c-0.06,0.82-0.07,1.53-0.12,5.4l-0.06,4.49c-0.03,2.47-0.06,4.49,0.03,5.58c0.07,0.69,0.24,1.15,1,1.26
				c0.36,0.06,0.92,0.11,1.3,0.12c0.28,0,0.41,0.08,0.4,0.21c0,0.18-0.21,0.25-0.49,0.25c-1.68-0.02-3.29-0.12-3.98-0.13
				c-0.59-0.01-2.19,0.05-3.21,0.03c-0.33,0-0.51-0.08-0.51-0.26c0-0.13,0.11-0.2,0.41-0.2c0.38,0,0.69-0.04,0.92-0.09
				c0.51-0.1,0.67-0.53,0.76-1.27c0.14-1.07,0.17-3.08,0.2-5.55L63.38,33.07z"/>
			<path class="st2" d="M75.9,44.81c-0.41-0.18-0.48-0.31-0.47-0.87c0.02-1.4,0.14-2.93,0.17-3.34c0.03-0.38,0.11-0.66,0.31-0.66
				c0.23,0,0.25,0.23,0.25,0.44c0,0.33,0.09,0.87,0.21,1.3c0.54,1.89,2.03,2.6,3.61,2.62c2.29,0.03,3.44-1.51,3.45-2.86
				c0.02-1.25-0.35-2.43-2.45-4.11l-1.16-0.93c-2.78-2.23-3.72-4.03-3.69-6.09c0.04-2.8,2.41-4.79,5.95-4.74
				c1.66,0.02,2.72,0.29,3.38,0.48c0.23,0.05,0.36,0.13,0.35,0.31c0,0.33-0.12,1.07-0.14,3.06c-0.01,0.56-0.09,0.76-0.29,0.76
				c-0.18,0-0.25-0.16-0.25-0.46c0-0.23-0.11-1.02-0.64-1.69c-0.38-0.49-1.11-1.26-2.76-1.29c-1.89-0.03-3.05,1.06-3.07,2.59
				c-0.02,1.17,0.56,2.07,2.65,3.71l0.71,0.55c3.05,2.36,4.13,4.13,4.1,6.56c-0.02,1.48-0.6,3.23-2.45,4.4
				c-1.29,0.8-2.72,1.01-4.07,0.99C78.13,45.5,76.99,45.31,75.9,44.81z"/>
			<path class="st2" d="M92.03,35.69c0.06-4.36,3.01-9.96,10.66-9.86c6.35,0.08,10.25,3.83,10.18,9.67
				c-0.08,5.84-4.21,10.4-10.69,10.32C94.85,45.72,91.97,40.2,92.03,35.69z M109.28,36.4c0.07-5.71-3.17-9.3-7.35-9.35
				c-2.93-0.04-6.29,1.55-6.38,7.9c-0.07,5.3,2.81,9.55,7.7,9.61C105.04,44.58,109.18,43.77,109.28,36.4z"/>
			<path class="st3" d="M66.03,57.57c-0.09,7.14-6.4,11.54-9.58,12.98c-0.13,0.07-0.26,0.1-0.46,0.1c-0.1,0-0.23-0.13-0.23-0.26
				c0-0.18,0.18-0.33,0.31-0.43c2.67-1.57,6.7-5.7,6.78-11.72c0.06-4.51-1.83-6.53-3.79-6.55c-1.84-0.02-3.08,1.59-3.11,3.76
				c-0.05,3.9,2.46,4.85,3.33,4.86c0.89,0.01,1.4-0.13,1.74-0.28c0.28-0.15,0.41-0.28,0.51-0.27c0.1,0,0.2,0.11,0.2,0.23
				c0,0.08-0.08,0.23-0.13,0.28c-0.75,0.78-2.08,1.15-3.38,1.13c-3.67-0.05-5.17-2.85-5.14-4.99c0.04-3.44,2.68-5.91,6.61-5.85
				C63.85,50.61,66.08,53.69,66.03,57.57z"/>
			<path class="st3" d="M77.13,70.77c-5.02-0.07-6.32-5.9-6.28-9.52c0.08-5.94,2.23-10.53,6.95-10.47c5.05,0.07,6.33,5.44,6.28,9.49
				C83.99,66.6,81.51,70.83,77.13,70.77z M77.24,51.93c-1.91-0.03-3.32,2.58-3.4,8.4c-0.06,4.41,0.97,9.27,3.78,9.31
				c2.07,0.03,3.39-3.45,3.45-8.39C81.13,56.82,80.02,51.96,77.24,51.93z"/>
			<path class="st3" d="M94.97,71c-5.02-0.07-6.32-5.9-6.28-9.52c0.08-5.94,2.23-10.53,6.95-10.47c5.05,0.07,6.33,5.44,6.28,9.49
				C101.83,66.83,99.36,71.06,94.97,71z M95.09,52.16c-1.91-0.02-3.32,2.58-3.4,8.4c-0.06,4.41,0.98,9.27,3.78,9.31
				c2.07,0.03,3.38-3.45,3.45-8.39C98.98,57.06,97.87,52.2,95.09,52.16z"/>
			<path class="st3" d="M112.08,59.06c0.02-1.38,0.03-2.47,0.04-3.34c0.01-0.61,0.01-0.92-0.37-0.92c-0.48-0.01-2.41,0.96-2.97,1.19
				c-0.13,0.05-0.26,0.1-0.36,0.1c-0.08,0-0.2-0.13-0.2-0.28c0-0.15,0.13-0.28,0.26-0.35c0.1-0.05,5.04-3.2,5.94-3.85
				c0.23-0.15,0.46-0.33,0.67-0.32c0.23,0,0.3,0.28,0.3,0.54c0,0.2-0.19,2.73-0.24,6.63l-0.06,4.72c-0.03,2.45-0.06,4.61,0.03,5.74
				c0.06,0.82,0.19,1.2,1,1.39c0.38,0.08,1.48,0.17,1.68,0.17c0.1,0,0.23,0.08,0.23,0.26c0,0.18-0.13,0.23-0.41,0.22
				c-1.94-0.03-3.57-0.12-4.26-0.13c-0.59-0.01-2.73,0.04-4.36,0.02c-0.28,0-0.43-0.06-0.43-0.24c0-0.18,0.11-0.25,0.21-0.25
				c0.28,0,1.58-0.06,2.04-0.15c0.82-0.17,0.95-0.52,1.04-1.34c0.12-1.12,0.19-3.29,0.2-5.74L112.08,59.06z"/>
			<path class="st3" d="M49.29,83.52c0.02-1.38,0.03-2.47,0.04-3.34c0.01-0.61,0.01-0.92-0.37-0.92c-0.48-0.01-2.41,0.96-2.97,1.19
				c-0.13,0.05-0.26,0.1-0.36,0.1c-0.08,0-0.2-0.13-0.2-0.28c0-0.15,0.13-0.28,0.26-0.35c0.1-0.05,5.04-3.2,5.94-3.85
				c0.23-0.15,0.46-0.33,0.67-0.32c0.23,0,0.3,0.28,0.3,0.54c0,0.2-0.19,2.73-0.24,6.63l-0.06,4.72c-0.03,2.45-0.06,4.61,0.03,5.74
				c0.07,0.82,0.19,1.2,1,1.39c0.38,0.08,1.48,0.17,1.68,0.17c0.1,0,0.23,0.08,0.23,0.26c0,0.18-0.13,0.23-0.41,0.22
				c-1.94-0.02-3.57-0.12-4.26-0.13c-0.59-0.01-2.73,0.04-4.36,0.02c-0.28,0-0.43-0.06-0.43-0.23c0-0.18,0.11-0.25,0.21-0.25
				c0.28,0,1.58-0.06,2.04-0.15c0.82-0.17,0.95-0.52,1.04-1.34c0.12-1.12,0.2-3.29,0.2-5.73L49.29,83.52z"/>
			<path class="st3" d="M61.52,90.39c-0.31,0-0.64-0.11-0.63-0.39c0-0.31,0.24-0.53,0.34-0.66c0.18-0.2,9.85-12.65,10.06-12.9
				c0.21-0.23,0.41-0.45,0.67-0.45c0.23,0,0.3,0.18,0.3,0.44c-0.01,0.38-0.05,2.17-0.08,3.82l-0.11,8.29l1.96,0.03
				c0.69,0.01,1.02-0.24,1.18-0.24c0.13,0,0.23,0.1,0.23,0.31c0,0.23-0.27,1.27-0.46,1.6c-0.13,0.23-0.26,0.33-0.69,0.32l-2.24-0.03
				c-0.01,0.82-0.05,1.96,0.04,3.09c0.07,0.79,0.21,1.25,1.05,1.44c0.36,0.08,0.89,0.11,1.15,0.12c0.13,0,0.23,0.08,0.23,0.26
				c0,0.18-0.13,0.23-0.41,0.22c-1.43-0.02-3.06-0.12-3.59-0.12c-0.71-0.01-2.09,0.05-3.49,0.03c-0.28,0-0.41-0.06-0.4-0.23
				c0-0.18,0.08-0.25,0.21-0.25c0.23,0,0.79-0.01,1.2-0.06c0.97-0.09,1.16-0.65,1.22-1.44c0.12-1.12,0.11-2.27,0.12-3.08
				L61.52,90.39z M69.48,80.62l-0.08,0c-0.6,0.83-4.91,6.67-5.79,7.8l5.76,0.08L69.48,80.62z"/>
			<path class="st3" d="M85.72,96.16c-5.02-0.07-6.32-5.9-6.28-9.52c0.08-5.94,2.23-10.53,6.94-10.47c5.05,0.07,6.33,5.44,6.28,9.49
				C92.58,91.99,90.1,96.22,85.72,96.16z M85.84,77.32c-1.91-0.02-3.32,2.58-3.4,8.4c-0.06,4.41,0.98,9.27,3.78,9.31
				c2.07,0.03,3.39-3.45,3.45-8.39C89.72,82.21,88.62,77.35,85.84,77.32z"/>
			<path class="st3" d="M103.56,96.39c-5.02-0.07-6.32-5.9-6.28-9.52c0.08-5.94,2.23-10.53,6.94-10.47
				c5.05,0.07,6.33,5.44,6.28,9.49C110.42,92.23,107.95,96.45,103.56,96.39z M103.68,77.55c-1.91-0.02-3.32,2.58-3.4,8.4
				c-0.06,4.41,0.98,9.27,3.78,9.31c2.06,0.03,3.38-3.45,3.45-8.39C107.57,82.45,106.46,77.59,103.68,77.55z"/>
			<path class="st3" d="M120.67,84.45c0.02-1.38,0.03-2.47,0.04-3.34c0.01-0.61,0.01-0.92-0.37-0.92c-0.48-0.01-2.41,0.96-2.97,1.19
				c-0.13,0.05-0.26,0.1-0.36,0.1c-0.08,0-0.2-0.13-0.2-0.28c0-0.15,0.13-0.28,0.26-0.35c0.1-0.05,5.04-3.2,5.94-3.85
				c0.23-0.15,0.46-0.33,0.67-0.32c0.23,0,0.3,0.28,0.3,0.54c0,0.2-0.19,2.73-0.24,6.63l-0.06,4.72c-0.03,2.45-0.06,4.61,0.03,5.74
				c0.07,0.82,0.19,1.2,1,1.39c0.38,0.08,1.48,0.17,1.68,0.17c0.1,0,0.23,0.08,0.23,0.26c0,0.18-0.13,0.23-0.41,0.22
				c-1.94-0.03-3.57-0.12-4.26-0.13c-0.59-0.01-2.73,0.04-4.36,0.02c-0.28,0-0.43-0.06-0.43-0.24c0-0.18,0.11-0.25,0.21-0.25
				c0.28,0,1.58-0.06,2.04-0.15c0.82-0.17,0.95-0.52,1.04-1.34c0.12-1.12,0.2-3.29,0.2-5.73L120.67,84.45z"/>
		</g>
	</g>
	<rect x="2.01" class="st4" width="168.03" height="168.03"/>
</g>
</svg>
