<?xml version="1.0" encoding="UTF-8"?>
<svg width="148px" height="148px" viewBox="0 0 148 148" version="1.1" xmlns="http://www.w3.org/2000/svg" xmlns:xlink="http://www.w3.org/1999/xlink">
    <title>Layer_1</title>
    <g id="Symbols" stroke="none" stroke-width="1" fill="none" fill-rule="evenodd">
        <g id="Alberts-/-USP-/-Desktop" transform="translate(-71.000000, -46.000000)" fill-rule="nonzero">
            <g id="Layer_1" transform="translate(71.000000, 46.000000)">
                <circle id="Oval" fill="#FFFFFF" cx="73.6360521" cy="73.6360521" r="73.6360521"></circle>
                <path d="M28.0731453,62.9887202 C23.4688937,84.6031236 30.503167,111.013623 51.7978308,129.142863 C51.7978308,129.142863 56.4340564,132.97974 58.6082863,134.386594 C60.3348807,135.537657 61.9975271,134.482516 60.6546204,132.787896 C55.7306291,126.520998 54.1639046,120.541866 55.794577,113.923254 C56.4980043,114.179046 57.2334056,114.434837 57.936833,114.658655 C77.3770065,121.565033 99.7268113,114.626681 111.621128,96.6573102 C125.593753,75.4905423 119.77449,46.9697614 98.6077223,32.9971367 C77.4409544,19.0245119 48.9201735,24.8437744 34.9475488,46.0105423 C31.4304121,51.3182213 29.1602603,57.0735358 28.0731453,62.9887202 Z" id="Path" fill="#000000"></path>
                <g id="Group" transform="translate(31.654230, 29.096312)">
                    <path d="M42.077744,0.0319739696 C18.960564,0.0319739696 0.191843818,18.6727983 0.0319739696,41.7580043 L42.077744,41.7580043 L42.077744,0.0319739696 Z" id="Path" fill="#FCC10F"></path>
                    <path d="M84.1235141,41.7580043 C83.9316703,18.6727983 65.1949241,0.0319739696 42.077744,0.0319739696 L42.077744,41.7580043 L84.1235141,41.7580043 Z" id="Path" fill="#489BD4"></path>
                    <path d="M42.077744,84.1554881 L42.077744,41.7580043 L0.0319739696,41.7580043 C0.0319739696,41.8859002 0.0319739696,41.9818221 0.0319739696,42.109718 C0.0319739696,65.32282 18.8646421,84.1554881 42.077744,84.1554881 Z" id="Path" fill="#EC1A75"></path>
                    <path d="M84.1235141,42.109718 C84.1235141,41.9818221 84.1235141,41.8859002 84.1235141,41.7580043 L42.077744,41.7580043 L42.077744,84.1554881 C65.290846,84.1554881 84.1235141,65.32282 84.1235141,42.109718 Z" id="Path" fill="#BBD531"></path>
                </g>
                <g id="Group" transform="translate(65.546638, 98.160087)" fill="#000000">
                    <path d="M61.4859436,1.91843818 C62.125423,2.68581345 62.093449,4.06069414 61.5818655,4.86004338 C61.1981779,5.30767896 60.1430369,3.48516269 60.2709328,2.58989154 C60.3988286,1.69462039 61.070282,1.40685466 61.4859436,1.91843818 Z M59.5355315,1.63067245 C57.9688069,3.48516269 57.8089371,5.59544469 59.5994794,7.80164859 C62.4131887,10.9670716 67.1773102,6.61861171 65.9622993,2.07830803 C65.8344035,1.50277657 65.1309761,1.56672451 65.1949241,2.14225597 C65.1309761,3.77292842 65.0030803,5.11583514 64.203731,5.62741866 C63.4683297,6.20295011 61.9016052,5.88321041 62.3812148,5.33965293 C63.9159653,2.90963124 63.14859,1.4708026 62.8927983,1.055141 C62.0295011,-0.159869848 60.8464642,0.0639479393 59.5355315,1.63067245 Z" id="Shape"></path>
                    <path d="M7.29006508,27.9452495 C6.81045553,27.3057701 3.74095445,27.8813015 2.23817787,28.3289371 C1.85449024,28.456833 1.4708026,28.6486768 1.7905423,29.2242082 C2.110282,29.7677657 2.39804772,30.3752711 2.39804772,30.7269848 C2.39804772,33.0610846 1.53475054,35.2353145 0.799349241,36.9619089 C0.287765727,38.1769197 -0.223817787,39.4239046 0.159869848,39.7436443 C0.479609544,40.03141 0.927245119,39.9035141 4.60425163,39.7756182 C4.95596529,39.7756182 5.11583514,39.7116703 5.17978308,39.2640347 C5.85123644,35.2672885 7.35401302,30.8868547 8.6329718,30.8868547 C9.01665944,30.9188286 9.20850325,31.3664642 9.30442516,31.4943601 C10.1037744,33.5726681 14.0365727,30.6950108 13.1732755,28.6486768 C12.4059002,26.6343167 10.1037744,26.8901085 7.29006508,30.535141 C7.5778308,28.8085466 7.54585683,28.2330152 7.29006508,27.9452495 Z" id="Path"></path>
                    <path d="M28.5527549,30.567115 C29.8636876,32.7413449 25.0995662,37.0578308 21.1987419,35.6190022 C20.3993926,35.3312364 19.3442516,34.4359653 19.5041215,33.4447722 C19.5360954,33.0930586 19.8558351,33.0291106 20.047679,32.9971367 C22.5736226,32.2937093 23.7566594,31.8140998 24.9077223,30.6950108 C26.8581345,28.7765727 26.8901085,26.2186551 24.3002169,25.3873319 C23.2450759,25.0675922 19.3442516,24.9396963 16.1468547,27.401692 C16.0189588,27.4976139 13.0453796,29.7997397 13.4930152,33.5726681 C13.7807809,36.0346638 15.0917137,37.6013883 17.4258134,38.2088937 C18.8646421,38.5606074 20.6551844,38.5925813 22.5096746,38.1769197 C28.7445987,36.1625597 29.0003905,32.1018655 30.535141,32.9651627 C29.8636876,32.1658134 29.2242082,31.3664642 28.5527549,30.567115 Z M22.4457267,26.3785249 C23.3090239,26.4744469 23.8206074,27.1778742 23.5008677,28.3609111 C23.0852061,29.8956616 19.951757,32.3576573 19.1204338,31.7501518 C17.873449,30.8548807 20.4313666,26.1547072 22.4457267,26.3785249 Z" id="Shape"></path>
                    <path d="M41.1824729,23.5648156 C42.2056399,24.9396963 41.7580043,27.369718 40.3831236,28.8085466 C38.2408677,31.0467245 34.8516269,30.7589588 33.2529284,27.7853796 C32.7093709,26.7302386 32.4855531,25.3873319 32.677397,24.1083731 C32.9971367,22.2219089 35.2353145,20.5272885 35.4271584,22.2858568 C35.6190022,22.8613883 35.2672885,23.3729718 35.746898,24.0763991 C36.3544035,25.0036443 38.4007375,24.204295 38.6885033,22.8933623 C39.1681128,19.951757 35.778872,19.3442516 32.1338395,21.3266377 C28.7445987,23.149154 26.9220824,27.0499783 28.5527549,30.5990889 C29.1922343,31.3984382 29.8636876,32.1977874 30.503167,32.9971367 C34.5318872,35.6829501 40.4150976,31.9419957 41.7260304,28.9684165 C42.141692,28.0411714 42.7811714,25.8029935 43.8043384,25.9628633 C42.9410412,25.1315401 42.0457701,24.3321909 41.1824729,23.5648156 Z" id="Path"></path>
                    <path d="M51.7338829,14.6121041 C48.8242516,9.97587852 43.132885,11.7983948 40.6708894,17.0101518 C39.8395662,18.92859 39.999436,21.8062473 41.1824729,23.5967896 C41.8859002,24.3002169 42.5893275,25.0356182 43.2927549,25.7390456 C44.9873753,26.4104989 46.9058134,26.314577 49.3678091,24.8437744 C52.9169197,22.7974403 53.9081128,18.2571367 51.7338829,14.6121041 Z M50.6467679,16.7223861 C52.3094143,21.1347939 48.1208243,25.0036443 45.1792191,21.5184816 C42.7172234,18.6088503 43.8682863,13.3970933 47.3214751,13.5569631 C48.5684599,13.5889371 49.9753145,14.9318438 50.6467679,16.7223861 Z" id="Shape"></path>
                    <path d="M54.77141,16.5305423 C54.1319306,16.9142299 53.9081128,17.7135792 54.3237744,18.3530586 C54.77141,18.992538 55.6347072,19.1524078 56.2741866,18.7367462 C56.9136659,18.3530586 57.1374837,17.5217354 56.6898482,16.882256 C56.2741866,16.2747505 55.4428633,16.1468547 54.77141,16.5305423 Z" id="Path"></path>
                    <path d="M58.0967028,15.1876356 C59.6634273,15.1236876 61.5498915,12.9174837 61.5498915,11.4466811 C61.6458134,10.1037744 60.5586985,8.85678959 58.928026,9.24047722 C57.4252495,9.65613883 56.4980043,9.6881128 56.1782646,9.40034707 C55.2829935,8.66494577 56.6578742,7.44993492 56.9776139,8.40915401 C57.2973536,9.3683731 58.991974,8.72889371 58.4803905,7.48190889 C58.2885466,7.13019523 58.0007809,6.87440347 57.5851193,6.74650759 C56.1462907,6.39479393 54.77141,8.12138829 54.2278525,9.52824295 C53.5883731,11.1908894 54.8993059,12.5657701 56.6259002,12.1501085 C57.7130152,11.9262907 58.5123644,11.6704989 59.1198698,12.2460304 C59.8552711,12.8535358 58.928026,13.684859 58.2565727,13.1413015 C57.3613015,12.597744 56.6259002,12.7256399 56.3701085,13.5889371 C56.1462907,14.5161822 57.1694577,15.1876356 58.0967028,15.1876356 Z" id="Path"></path>
                </g>
                <g id="Group" transform="translate(9.272451, 6.714534)" fill="#000000">
                    <path d="M7.67375271,73.2523644 L7.96151844,74.9469848 L11.7344469,74.3394794 L12.0861605,76.4817354 L1.75856833,78.1443818 L1.15106291,74.3075054 C1.055141,73.7 1.02316703,73.1564425 1.08711497,72.676833 C1.15106291,72.1972234 1.27895879,71.7495879 1.50277657,71.3978742 C1.72659436,71.0141866 1.98238612,70.7264208 2.36607375,70.502603 C2.71778742,70.2787852 3.16542299,70.1189154 3.67700651,70.0229935 C4.06069414,69.9590456 4.41240781,69.9590456 4.70017354,69.9910195 C4.98793926,70.0229935 5.30767896,70.1189154 5.56347072,70.2148373 C5.81926247,70.3427332 6.07505423,70.502603 6.26689805,70.6944469 C6.49071584,70.8862907 6.68255965,71.1101085 6.8424295,71.3978742 L10.7112798,68.488243 L10.8072017,68.456269 L11.1908894,70.7264208 L7.67375271,73.2523644 Z M6.20295011,75.2347505 L5.91518438,73.5081562 C5.88321041,73.2203905 5.7872885,72.9965727 5.69136659,72.8047289 C5.59544469,72.612885 5.46754881,72.4530152 5.30767896,72.3251193 C5.14780911,72.1972234 4.98793926,72.1332755 4.76412148,72.1013015 C4.57227766,72.0693275 4.34845987,72.0693275 4.12464208,72.1013015 C3.64503254,72.1652495 3.29331887,72.3890672 3.03752711,72.7088069 C2.81370933,73.0285466 2.71778742,73.4761822 2.81370933,74.0517137 L3.10147505,75.7463341 L6.20295011,75.2347505 Z" id="Shape"></path>
                    <polygon id="Path" points="6.23492408 60.7185683 6.23492408 64.8751844 9.04863341 64.8751844 9.08060738 60.015141 10.8072017 60.015141 10.7752278 67.0174403 0.287765727 66.9854664 0.319739696 59.983167 2.07830803 59.983167 2.04633406 64.8112364 4.54030369 64.8112364 4.57227766 60.6865944"></polygon>
                    <polygon id="Path" points="7.32203905 54.707462 8.3132321 56.0183948 11.2548373 56.5299783 10.8711497 58.6402603 0.575531453 56.849718 0.959219089 54.739436 5.62741866 55.5387852 4.50832972 54.3877223 1.56672451 51.1903254 2.01436009 48.5684599 5.94715835 53.0128416 12.3099783 50.2311063 11.8623427 52.7570499"></polygon>
                    <path d="M10.8711497,39.8075922 C11.606551,40.0953579 12.2460304,40.4470716 12.7895879,40.8627332 C13.3011714,41.2783948 13.716833,41.7580043 14.0045987,42.2695879 C14.2923644,42.7811714 14.4522343,43.3567028 14.4842082,43.9322343 C14.5161822,44.5397397 14.4202603,45.1472451 14.1964425,45.7547505 C13.9726247,46.362256 13.652885,46.9058134 13.2372234,47.3214751 C12.8215618,47.7371367 12.3419523,48.0888503 11.7983948,48.2806941 C11.2548373,48.472538 10.6473319,48.6004338 9.97587852,48.6004338 C9.30442516,48.6004338 8.60099783,48.440564 7.83362256,48.1527983 L7.41796095,47.9929284 C6.68255965,47.7051627 6.04308026,47.385423 5.49952278,46.9377874 C4.98793926,46.5221258 4.57227766,46.0425163 4.28451193,45.5309328 C3.9967462,45.0193492 3.83687636,44.4438178 3.80490239,43.8682863 C3.77292842,43.2607809 3.86885033,42.6532755 4.09266811,42.0457701 C4.3164859,41.4382646 4.6362256,40.8947072 5.0518872,40.4790456 C5.46754881,40.0633839 5.94715835,39.7116703 6.49071584,39.5198265 C7.03427332,39.2960087 7.64177874,39.2000868 8.34520607,39.2320607 C9.01665944,39.2320607 9.72008677,39.3919306 10.487462,39.6796963 L10.8711497,39.8075922 Z M9.6881128,41.6940564 C8.66494577,41.3103688 7.80164859,41.2144469 7.13019523,41.3743167 C6.45874187,41.5341866 6.01110629,41.9818221 5.75531453,42.6532755 C5.49952278,43.3247289 5.56347072,43.9642082 5.97913232,44.5397397 C6.39479393,45.1152711 7.09822126,45.5629067 8.12138829,45.9465944 L8.56902386,46.1064642 C9.08060738,46.298308 9.56021692,46.4262039 9.97587852,46.4581779 C10.3915401,46.5221258 10.7752278,46.4901518 11.1269414,46.3942299 C11.4466811,46.298308 11.7344469,46.1704121 11.9902386,45.9465944 C12.2140564,45.7227766 12.4059002,45.4669848 12.5337961,45.1152711 C12.7895879,44.4438178 12.6936659,43.8043384 12.3099783,43.2607809 C11.9262907,42.7172234 11.1908894,42.2376139 10.1677223,41.8539262 L9.6881128,41.6940564 Z" id="Shape"></path>
                    <polygon id="Path" points="8.85678959 32.0698915 16.6904121 33.8604338 11.7344469 27.5295879 13.2691974 25.1315401 22.094013 30.7589588 20.9429501 32.5814751 18.5449024 31.0467245 14.4842082 28.2010412 19.5360954 34.755705 18.7367462 36.0026898 10.6473319 34.2121475 14.9318438 36.6741432 17.3298915 38.2088937 16.1788286 40.03141 7.35401302 34.4039913"></polygon>
                    <polygon id="Path" points="18.0333189 19.8558351 25.227462 23.4688937 21.9021692 16.1148807 23.9485033 14.1644685 31.2065944 21.7103254 29.6398698 23.213102 27.6574837 21.1667679 24.3961388 17.4258134 27.7534056 25.0036443 26.6982646 26.0268113 19.2803037 22.3817787 22.8613883 25.7710195 24.8437744 27.8173536 23.2770499 29.3201302 16.0189588 21.7742733"></polygon>
                    <polygon id="Path" points="35.7149241 13.4610412 32.2297614 15.6992191 33.732538 18.0652928 37.8252061 15.4434273 38.7524512 16.9142299 32.8372668 20.6871584 27.2098482 11.8623427 33.0930586 8.08941432 34.0203037 9.56021692 29.9276356 12.1501085 31.2705423 14.2603905 34.755705 12.0222126"></polygon>
                    <polygon id="Path" points="47.8330586 12.9814317 45.8506725 13.8127549 39.3599566 9.04863341 41.9818221 15.4114534 39.999436 16.2427766 35.9707158 6.55466377 37.953102 5.72334056 44.4757918 10.487462 41.8539262 4.12464208 43.8363124 3.29331887"></polygon>
                    <path d="M49.7195228,12.4698482 L47.6092408,2.23817787 L50.7746638,1.59869848 C51.4780911,1.4708026 52.1175705,1.43882863 52.7570499,1.56672451 C53.3645553,1.69462039 53.9400868,1.91843818 54.4516703,2.27015184 C54.9632538,2.62186551 55.3789154,3.06950108 55.7306291,3.61305857 C56.0823427,4.15661605 56.3381345,4.79609544 56.4980043,5.53149675 L56.5939262,6.01110629 C56.7537961,6.74650759 56.7537961,7.41796095 56.6578742,8.08941432 C56.5619523,8.72889371 56.3381345,9.30442516 56.0183948,9.81600868 C55.6986551,10.3275922 55.2510195,10.7752278 54.739436,11.1269414 C54.1958785,11.4786551 53.5883731,11.7344469 52.9169197,11.8623427 L49.7195228,12.4698482 Z M50.0712364,3.48516269 L51.4780911,10.3275922 L52.5012581,10.1037744 C53.3325813,9.94390456 53.9081128,9.52824295 54.2278525,8.88876356 C54.5475922,8.24928416 54.6115401,7.41796095 54.3877223,6.39479393 L54.2918004,5.91518438 C54.0679826,4.86004338 53.684295,4.12464208 53.1407375,3.67700651 C52.59718,3.22937093 51.9257267,3.10147505 51.0944035,3.2613449 L50.0712364,3.48516269 Z" id="Shape"></path>
                    <polygon id="Path" points="65.3547939 5.94715835 61.2301518 6.1070282 61.3260738 8.92073753 66.1861171 8.72889371 66.2500651 10.4554881 59.2477657 10.7112798 58.8640781 0.255791757 65.8663774 0 65.9303254 1.75856833 61.102256 1.95041215 61.1981779 4.44438178 65.32282 4.28451193"></polygon>
                    <path d="M71.9734056,7.22611714 L70.2787852,7.00229935 L69.7672017,10.8072017 L67.6249458,10.519436 L68.9678525,0.159869848 L72.8047289,0.671453362 C73.4122343,0.735401302 73.9238178,0.89527115 74.4034273,1.08711497 C74.8510629,1.27895879 75.2347505,1.53475054 75.5225163,1.85449024 C75.810282,2.17422993 76.0340998,2.5259436 76.1619957,2.94160521 C76.2898915,3.35726681 76.3218655,3.80490239 76.2579176,4.3164859 C76.1939696,4.70017354 76.1300217,5.01991323 76.0021258,5.30767896 C75.8742299,5.59544469 75.7143601,5.85123644 75.5225163,6.07505423 C75.3306725,6.29887202 75.1068547,6.45874187 74.8510629,6.61861171 C74.5952711,6.77848156 74.3394794,6.87440347 74.0197397,6.97032538 L75.7143601,11.5106291 L75.7143601,11.606551 L73.4122343,11.3187852 L71.9734056,7.22611714 Z M70.4706291,5.27570499 L72.1972234,5.49952278 C72.4849892,5.53149675 72.7407809,5.53149675 72.9645987,5.49952278 C73.1884165,5.46754881 73.3802603,5.3716269 73.5401302,5.24373102 C73.7,5.11583514 73.8278959,4.98793926 73.9238178,4.79609544 C74.0197397,4.60425163 74.0836876,4.41240781 74.1156616,4.18859002 C74.1796095,3.70898048 74.0836876,3.29331887 73.8598698,2.97357918 C73.6040781,2.65383948 73.2203905,2.46199566 72.644859,2.39804772 L70.9182646,2.17422993 L70.4706291,5.27570499 Z" id="Shape"></path>
                    <path d="M83.2921909,11.6704989 L79.7111063,10.519436 L78.3681996,12.3419523 L76.1939696,11.6385249 L83.1003471,2.87765727 L84.9868113,3.48516269 L85.4983948,14.6440781 L83.3241649,13.9406508 L83.2921909,11.6704989 Z M80.7662473,9.04863341 L83.2602169,9.84798265 L83.228243,5.72334056 L80.7662473,9.04863341 Z" id="Shape"></path>
                    <polygon id="Path" points="96.6573102 10.7112798 93.8116269 9.24047722 89.8148807 16.9781779 87.8964425 15.9869848 91.9251627 8.28125813 89.1114534 6.8424295 89.9108026 5.30767896 97.4886334 9.20850325"></polygon>
                    <polygon id="Path" points="104.299089 22.157961 101.133666 19.4721475 98.3519306 22.7334924 96.7212581 21.3266377 103.49974 13.3651193 108.679523 17.7775271 107.560434 19.1204338 104.011323 16.1148807 102.252755 18.1612148 105.418178 20.8470282"></polygon>
                    <path d="M112.228633,30.1194794 C111.621128,30.6310629 110.981649,31.0147505 110.374143,31.2385683 C109.734664,31.4943601 109.127158,31.590282 108.551627,31.558308 C107.976095,31.5263341 107.400564,31.3984382 106.857007,31.1426464 C106.313449,30.8868547 105.865813,30.503167 105.418178,29.9915835 C105.002516,29.48 104.714751,28.9364425 104.522907,28.392885 C104.363037,27.8173536 104.299089,27.2418221 104.395011,26.6662907 C104.490933,26.0907592 104.682777,25.5152278 105.03449,24.9396963 C105.386204,24.3641649 105.865813,23.8206074 106.473319,23.3090239 L106.825033,23.0212581 C107.432538,22.5096746 108.040043,22.125987 108.679523,21.9021692 C109.319002,21.6463774 109.926508,21.5504555 110.502039,21.5824295 C111.109544,21.6144035 111.653102,21.7422993 112.196659,21.9980911 C112.740217,22.2538829 113.187852,22.6375705 113.635488,23.149154 C114.05115,23.6607375 114.338915,24.204295 114.530759,24.7478525 C114.690629,25.3233839 114.722603,25.8989154 114.658655,26.4744469 C114.562733,27.0499783 114.338915,27.6574837 113.987202,28.2010412 C113.635488,28.7765727 113.155879,29.3201302 112.548373,29.8317137 L112.228633,30.1194794 Z M111.205466,28.1370933 C112.03679,27.4336659 112.548373,26.7622126 112.740217,26.0907592 C112.932061,25.4193059 112.772191,24.8118004 112.324555,24.268243 C111.844946,23.7246855 111.269414,23.4688937 110.597961,23.5328416 C109.894534,23.5967896 109.159132,23.9804772 108.295835,24.6839046 L107.944121,24.9716703 C107.52846,25.3233839 107.176746,25.6750976 106.920954,26.0268113 C106.665163,26.3785249 106.505293,26.6982646 106.409371,27.0499783 C106.313449,27.369718 106.313449,27.6894577 106.377397,28.0091974 C106.441345,28.3289371 106.601215,28.6167028 106.825033,28.9044685 C107.304642,29.448026 107.880174,29.7038178 108.551627,29.6398698 C109.255054,29.5759219 110.02243,29.1922343 110.853753,28.4888069 L111.205466,28.1370933 Z M113.027983,20.0796529 C113.123905,19.983731 113.219826,19.951757 113.347722,19.9197831 C113.475618,19.8878091 113.57154,19.8878091 113.699436,19.8878091 C113.827332,19.8878091 113.923254,19.951757 114.05115,20.015705 C114.179046,20.0796529 114.274967,20.1755748 114.370889,20.2714967 C114.466811,20.3674187 114.530759,20.4953145 114.562733,20.6232104 C114.594707,20.7511063 114.626681,20.8790022 114.626681,20.9749241 C114.626681,21.10282 114.594707,21.1987419 114.530759,21.3266377 C114.466811,21.4225597 114.402863,21.5184816 114.306941,21.6144035 C114.21102,21.7103254 114.115098,21.7422993 113.987202,21.7742733 C113.859306,21.8062473 113.763384,21.8062473 113.635488,21.8062473 C113.507592,21.8062473 113.41167,21.7422993 113.283774,21.6783514 C113.155879,21.6144035 113.059957,21.5184816 112.964035,21.4225597 C112.868113,21.3266377 112.804165,21.1987419 112.772191,21.070846 C112.740217,20.9429501 112.708243,20.8150542 112.708243,20.7191323 C112.708243,20.5912364 112.740217,20.4953145 112.804165,20.3674187 C112.868113,20.2395228 112.932061,20.1436009 113.027983,20.0796529 Z M115.266161,22.7654664 C115.362082,22.6695445 115.458004,22.6375705 115.5859,22.6055965 C115.713796,22.5736226 115.809718,22.5736226 115.937614,22.5736226 C116.06551,22.5736226 116.161432,22.6375705 116.289328,22.7015184 C116.417223,22.7654664 116.513145,22.8613883 116.609067,22.9573102 C116.704989,23.0532321 116.768937,23.181128 116.800911,23.3090239 C116.832885,23.4369197 116.864859,23.5648156 116.864859,23.6607375 C116.864859,23.7886334 116.832885,23.8845553 116.768937,24.0124512 C116.704989,24.1083731 116.641041,24.204295 116.545119,24.3002169 C116.449197,24.3961388 116.353275,24.4281128 116.22538,24.4600868 C116.097484,24.4920607 116.001562,24.4920607 115.873666,24.4920607 C115.74577,24.4920607 115.649848,24.4281128 115.521952,24.3641649 C115.394056,24.3002169 115.298134,24.204295 115.202213,24.1083731 C115.106291,24.0124512 115.042343,23.8845553 115.010369,23.7566594 C114.978395,23.6287636 114.946421,23.5008677 114.946421,23.4049458 C114.946421,23.2770499 114.978395,23.181128 115.042343,23.0532321 C115.106291,22.9253362 115.170239,22.8294143 115.266161,22.7654664 Z" id="Shape"></path>
                    <path d="M114.530759,36.1945336 L113.699436,34.691757 L110.374143,36.5462473 L109.319002,34.6597831 L118.431584,29.5439479 L120.318048,32.9331887 C120.605813,33.4447722 120.829631,33.9563557 120.925553,34.4359653 C121.053449,34.9155748 121.053449,35.3632104 120.989501,35.778872 C120.925553,36.1945336 120.765683,36.5782213 120.509892,36.9299349 C120.2541,37.2816486 119.902386,37.5694143 119.454751,37.8252061 C119.135011,38.0170499 118.815271,38.1449458 118.495531,38.2088937 C118.175792,38.2728416 117.888026,38.3048156 117.60026,38.2728416 C117.312495,38.2408677 117.024729,38.1769197 116.768937,38.0490239 C116.513145,37.921128 116.257354,37.7932321 116.001562,37.6013883 L113.379696,41.6620824 L113.283774,41.7260304 L112.164685,39.7116703 L114.530759,36.1945336 Z M115.202213,33.8604338 L116.06551,35.3632104 C116.193406,35.6190022 116.353275,35.810846 116.513145,35.9707158 C116.673015,36.1305857 116.864859,36.2265076 117.056703,36.2904555 C117.248547,36.3544035 117.44039,36.3544035 117.632234,36.3224295 C117.824078,36.2904555 118.047896,36.2265076 118.23974,36.0986117 C118.655401,35.84282 118.943167,35.5550542 119.039089,35.1713666 C119.135011,34.787679 119.071063,34.3400434 118.783297,33.8284599 L117.951974,32.3256833 L115.202213,33.8604338 Z" id="Shape"></path>
                    <polygon id="Path" points="120.126204 47.5133189 118.751323 43.6124946 116.097484 44.5397397 117.728156 49.1120174 116.097484 49.6875488 113.73141 43.1009111 123.579393 39.5837744 125.913492 46.1704121 124.28282 46.7459436 122.652148 42.1736659 120.318048 43.0049892 121.692928 46.9058134"></polygon>
                    <polygon id="Path" points="126.425076 57.4252495 125.849544 54.2598265 117.280521 55.794577 116.896833 53.684295 125.465857 52.1495445 124.922299 49.0480694 126.648894 48.7283297 128.15167 57.1055098"></polygon>
                    <path d="M120.126204,65.32282 L120.062256,61.5498915 L117.888026,60.8464642 L117.856052,58.5443384 L128.375488,62.2852928 L128.407462,64.267679 L118.015922,68.3283731 L117.983948,66.0262473 L120.126204,65.32282 Z M121.820824,62.093449 L121.852798,64.7153145 L125.753623,63.3404338 L121.820824,62.093449 Z" id="Shape"></path>
                    <path d="M117.76013,77.6327983 C117.632234,77.4729284 117.504338,77.2810846 117.376443,77.0572668 C117.248547,76.8014751 117.120651,76.5137093 117.056703,76.1619957 C116.960781,75.810282 116.928807,75.4265944 116.896833,74.9789588 C116.864859,74.5313232 116.928807,74.0197397 117.024729,73.4442082 C117.152625,72.7727549 117.344469,72.1972234 117.664208,71.6856399 C117.983948,71.1740564 118.367636,70.7583948 118.879219,70.4386551 C119.358829,70.1189154 119.93436,69.8950976 120.605813,69.7991757 C121.277267,69.7032538 121.980694,69.7032538 122.780043,69.8311497 L123.387549,69.9270716 C124.186898,70.0549675 124.890325,70.2787852 125.465857,70.5985249 C126.041388,70.9182646 126.520998,71.3019523 126.872711,71.7495879 C127.224425,72.1972234 127.480217,72.7088069 127.608113,73.2843384 C127.736009,73.8598698 127.736009,74.4673753 127.640087,75.1068547 C127.512191,75.778308 127.352321,76.3538395 127.096529,76.8014751 C126.840738,77.2491106 126.552972,77.6327983 126.169284,77.920564 C125.81757,78.2083297 125.401909,78.4001735 124.954273,78.4960954 C124.506638,78.5920174 124.027028,78.6559653 123.515445,78.6239913 L123.867158,76.5456833 C124.12295,76.5456833 124.378742,76.5137093 124.60256,76.4817354 C124.826377,76.4177874 125.018221,76.3218655 125.210065,76.1939696 C125.369935,76.0660738 125.529805,75.9062039 125.657701,75.6823861 C125.785597,75.4585683 125.849544,75.2027766 125.913492,74.8830369 C126.041388,74.1476356 125.849544,73.5721041 125.369935,73.0924946 C124.890325,72.612885 124.090976,72.2931453 123.035835,72.1013015 L122.42833,72.0053796 C121.341215,71.8135358 120.509892,71.8774837 119.870412,72.1972234 C119.262907,72.5169631 118.879219,73.0605206 118.719349,73.8598698 C118.687375,74.1156616 118.655401,74.3394794 118.655401,74.5313232 C118.655401,74.723167 118.655401,74.8830369 118.687375,75.0429067 C118.719349,75.1708026 118.751323,75.2986985 118.783297,75.3946204 C118.815271,75.4905423 118.879219,75.5864642 118.911193,75.6504121 L120.701735,75.9701518 L121.021475,74.0517137 L122.5882,74.3075054 L121.884772,78.3681996 L117.76013,77.6327983 Z" id="Path"></path>
                </g>
                <circle id="Oval" fill="#FFFFFF" cx="73.4761822" cy="71.7495879" r="35.746898"></circle>
            </g>
        </g>
    </g>
</svg>